<svg width="420" height="320" viewBox="0 0 420 320" fill="none" xmlns="http://www.w3.org/2000/svg">
  <defs>
    <linearGradient id="bgGradient" x1="0" y1="0" x2="1" y2="1">
      <stop offset="0%" stop-color="#0A1A29" />
      <stop offset="45%" stop-color="#10263C" />
      <stop offset="100%" stop-color="#1B4063" />
    </linearGradient>
    <radialGradient id="glow" cx="0.5" cy="0.4" r="0.7">
      <stop offset="0%" stop-color="#3BC5FF" stop-opacity="0.8" />
      <stop offset="65%" stop-color="#142F4B" stop-opacity="0.4" />
      <stop offset="100%" stop-color="#0A1623" stop-opacity="0.1" />
    </radialGradient>
    <linearGradient id="panel" x1="0" y1="0" x2="1" y2="1">
      <stop offset="0%" stop-color="#12273D" stop-opacity="0.95" />
      <stop offset="100%" stop-color="#0C1A2A" stop-opacity="0.95" />
    </linearGradient>
    <linearGradient id="accent" x1="0" y1="0" x2="1" y2="1">
      <stop offset="0%" stop-color="#66C0F4" />
      <stop offset="100%" stop-color="#4BB8F0" />
    </linearGradient>
    <filter id="softShadow" x="-20%" y="-20%" width="140%" height="140%">
      <feDropShadow dx="0" dy="20" stdDeviation="16" flood-color="#04080D" flood-opacity="0.55" />
    </filter>
    <pattern id="scanLines" width="6" height="6" patternUnits="userSpaceOnUse">
      <rect width="6" height="3" fill="#112032" opacity="0.35" />
      <rect y="3" width="6" height="3" fill="#0C1724" opacity="0.25" />
    </pattern>
    <filter id="gloss" x="-10%" y="-10%" width="120%" height="120%">
      <feGaussianBlur stdDeviation="14" result="blur" />
      <feBlend in="SourceGraphic" in2="blur" mode="screen" />
    </filter>
  </defs>

  <rect width="420" height="320" rx="26" fill="url(#bgGradient)" />
  <rect width="420" height="320" rx="26" fill="url(#scanLines)" opacity="0.65" />

  <g filter="url(#softShadow)">
    <rect x="24" y="30" width="372" height="260" rx="22" fill="url(#panel)" stroke="rgba(102,192,244,0.35)" />
  </g>

  <ellipse cx="210" cy="80" rx="190" ry="120" fill="url(#glow)" />

  <g transform="translate(48 52)">
    <g filter="url(#gloss)">
      <circle cx="60" cy="60" r="54" fill="#0E1D2C" />
    </g>
    <circle cx="60" cy="60" r="54" stroke="url(#accent)" stroke-width="2.5" fill="transparent" opacity="0.8" />
    <circle cx="60" cy="60" r="45" fill="url(#accent)" opacity="0.18" />
    <path
      d="M74.4 90.5c-11.1 0-20-9-20-20.1c0-6.4 2.9-12.1 7.4-15.9c-0.1 0.8-0.1 1.6-0.1 2.4c0 10.7 8.6 19.4 19.2 19.4c0.7 0 1.5 0 2.2-0.1c-3.8 4.5-9.4 7.3-15.7 7.3z"
      fill="#66C0F4" opacity="0.65"
    />
    <path
      d="M60 21c-21.5 0-39 17.7-39 39.5S38.5 100 60 100s39-17.7 39-39.5S81.5 21 60 21zm19.2 47.3c-3.1 0-5.6-2.5-5.6-5.6c0-3.1 2.5-5.6 5.6-5.6c3.1 0 5.6 2.5 5.6 5.6c0 3.1-2.5 5.6-5.6 5.6zM50.3 78.8c-8.6 0-15.5-7-15.5-15.6c0-0.6 0-1.2 0.1-1.8l11.3 4.9c2.2 4.8 6 8.7 10.8 11l4.8 11.1c-0.6 0-1.2 0.1-1.7 0.1z"
      fill="#7CE8FF" opacity="0.85"
    />
  </g>

  <g transform="translate(140 66)">
    <text x="0" y="0" font-family="'Segoe UI', 'Inter', sans-serif" font-size="28" font-weight="700" fill="#F3FAFF">lopobia</text>
    <text x="0" y="24" font-family="'Segoe UI', 'Inter', sans-serif" font-size="13.5" fill="#88A9C6" letter-spacing="0.04em">ASTRAL CURATOR · SIGNATURE STEAM SHOWCASE</text>
    <g transform="translate(0 40)">
      <rect width="220" height="42" rx="12" fill="rgba(10, 22, 35, 0.82)" stroke="rgba(102, 192, 244, 0.25)" />
      <g transform="translate(16 12)">
        <circle cx="10" cy="10" r="10" fill="#1D405F" />
        <path d="M6.5 9.5h7l-3.5 5.5" stroke="#7CE8FF" stroke-width="2" stroke-linecap="round" stroke-linejoin="round" />
      </g>
      <text x="44" y="18" font-family="'Segoe UI', 'Inter', sans-serif" font-size="12.5" fill="#B8D8F0">Signature spotlight <tspan fill="#66C0F4">hand-crafted by lopobia</tspan></text>
      <text x="44" y="30" font-family="'Segoe UI', 'Inter', sans-serif" font-size="11" fill="#5F7B95">Discover the full gallery, artwork, and highlight reels on Steam</text>
    </g>
  </g>

  <g transform="translate(48 196)" font-family="'Segoe UI', 'Inter', sans-serif">
    <g transform="translate(0 0)">
      <rect width="98" height="96" rx="16" fill="rgba(13, 30, 47, 0.78)" stroke="rgba(103, 192, 244, 0.3)" />
      <g transform="translate(26 20)">
        <path d="M24 0c13.3 0 24 10.7 24 24S37.3 48 24 48 0 37.3 0 24 10.7 0 24 0zm-3.5 14.8c-2.4 0-4.3 1.9-4.3 4.3s1.9 4.3 4.3 4.3s4.3-1.9 4.3-4.3s-1.9-4.3-4.3-4.3zm11.7 5c-1 3.3-4 5.7-7.5 5.7c-1 0-1.9-0.2-2.8-0.5l-6 6.1a4.2 4.2 0 0 0 3 7.2h16.6c2.9 0 5-2.8 4.1-5.6l-7.4-16.9z" fill="#66C0F4" />
      </g>
      <text x="49" y="70" text-anchor="middle" font-size="12" fill="#8FB9DA">COLLECTOR STATUS</text>
      <text x="49" y="84" text-anchor="middle" font-size="12.5" font-weight="600" fill="#F3FAFF">
        <tspan x="49" dy="0">Expansive library</tspan>
        <tspan x="49" dy="14">Curated playlists</tspan>
      </text>
    </g>

    <g transform="translate(116 0)">
      <rect width="98" height="96" rx="16" fill="rgba(13, 30, 47, 0.78)" stroke="rgba(103, 192, 244, 0.3)" />
      <g transform="translate(28 18)">
        <path d="M18 48h20l2-11h8l-9-28H17L8 37h8l2 11zm4-17l3-14h8l4 14h-15z" fill="#7BD9FF" />
      </g>
      <text x="49" y="70" text-anchor="middle" font-size="12" fill="#8FB9DA">PRESTIGE BADGES</text>
      <text x="49" y="84" text-anchor="middle" font-size="12.5" font-weight="600" fill="#F3FAFF">
        <tspan x="49" dy="0">Seasonal foils</tspan>
        <tspan x="49" dy="14">Mastery sets</tspan>
      </text>
    </g>

    <g transform="translate(232 0)">
      <rect width="98" height="96" rx="16" fill="rgba(13, 30, 47, 0.78)" stroke="rgba(103, 192, 244, 0.3)" />
      <g transform="translate(28 18)">
        <path d="M22 0l7 14l16 2l-11.5 11.2L36 44l-14-7.4L8 44l2.5-16.8L-1 16l16-2L22 0z" fill="#6FD0FF" />
      </g>
      <text x="49" y="70" text-anchor="middle" font-size="12" fill="#8FB9DA">ART SHOWCASES</text>
      <text x="49" y="84" text-anchor="middle" font-size="12.5" font-weight="600" fill="#F3FAFF">
        <tspan x="49" dy="0">Workshop gems</tspan>
        <tspan x="49" dy="14">Cinematic captures</tspan>
      </text>
    </g>
  </g>

  <g transform="translate(236 234)">
    <rect width="144" height="52" rx="14" fill="rgba(16, 36, 54, 0.9)" stroke="rgba(102, 192, 244, 0.4)" />
    <g transform="translate(18 13)">
      <path d="M15.2 14.7c-2.9 0-5.3-2.4-5.3-5.3S12.3 4 15.2 4s5.3 2.4 5.3 5.3s-2.4 5.4-5.3 5.4zm-5.4-13.6a8.4 8.4 0 0 0-4 15.8l6 3.1c1.5 0.8 3.3 0.2 4.1-1.3l1.2-2.3a3.2 3.2 0 0 1 5.6-0.2l1.7 2.5a3.2 3.2 0 0 0 5.4-0.3l1.5-3.1a8.4 8.4 0 0 0-3.8-11.5L10 1.1a3.5 3.5 0 0 0-0.2 0z" fill="#66C0F4" />
    </g>
    <text x="56" y="22" font-family="'Segoe UI', 'Inter', sans-serif" font-size="12.5" fill="#8FB9DA">VIEW FULL PROFILE</text>
    <text x="56" y="38" font-family="'Segoe UI', 'Inter', sans-serif" font-size="11" fill="#4FB4F7">steamcommunity.com/id/lopobia</text>
  </g>
</svg>
